<?xml version="1.0" encoding="utf-8" standalone="no"?>
<!DOCTYPE svg PUBLIC "-//W3C//DTD SVG 1.1//EN"
  "http://www.w3.org/Graphics/SVG/1.1/DTD/svg11.dtd">
<!-- Created with matplotlib (http://matplotlib.sourceforge.net/) -->
<svg height="432pt" version="1.1" viewBox="0 0 576 432" width="576pt" xmlns="http://www.w3.org/2000/svg" xmlns:xlink="http://www.w3.org/1999/xlink">
 <defs>
  <style type="text/css">
*{stroke-linecap:square;stroke-linejoin:round;}
  </style>
 </defs>
 <g id="figure_1">
  <g id="patch_1">
   <path d="
M0 432
L576 432
L576 0
L0 0
z
" style="fill:#ffffff;"/>
  </g>
  <g id="axes_1">
   <g id="patch_2">
    <path d="
M117.637 388.8
L472.763 388.8
L472.763 43.2
L117.637 43.2
z
" style="fill:#ffffff;"/>
   </g>
   <g id="line2d_1">
    <path clip-path="url(#pd92fc4fd08)" d="
M117.637 388.8
L463.237 43.2" style="fill:none;stroke:#808080;"/>
   </g>
   <g id="line2d_2">
    <path clip-path="url(#pd92fc4fd08)" d="
M117.637 198.698
L472.763 198.698" style="fill:none;stroke:#808080;"/>
   </g>
   <g id="line2d_3">
    <path clip-path="url(#pd92fc4fd08)" d="
M117.637 132.313
L472.763 132.313" style="fill:none;stroke:#808080;"/>
   </g>
   <g id="line2d_4">
    <path clip-path="url(#pd92fc4fd08)" d="
M117.637 85.5417
L472.763 85.5417" style="fill:none;stroke:#808080;"/>
   </g>
   <g id="LineCollection_1">
    <defs>
     <path d="
M298.331 -223.523
L305.289 -223.523" id="C0_0_e083e1ecae"/>
     <path d="
M229.252 -201.579
L257.27 -201.579" id="C0_1_bcf4caa574"/>
     <path d="
M260.042 -213.319
L271.213 -213.319" id="C0_2_a3c1bc5a6d"/>
     <path d="
M369.471 -216.424
L385.717 -216.424" id="C0_3_974ae28223"/>
     <path d="
M401.391 -234.715
L412.549 -234.715" id="C0_4_161856600a"/>
    </defs>
    <g clip-path="url(#pd92fc4fd08)">
     <use style="fill:none;stroke:#000000;stroke-linecap:butt;" x="0" xlink:href="#C0_0_e083e1ecae" y="432.0"/>
    </g>
    <g clip-path="url(#pd92fc4fd08)">
     <use style="fill:none;stroke:#000000;stroke-linecap:butt;" x="0" xlink:href="#C0_1_bcf4caa574" y="432.0"/>
    </g>
    <g clip-path="url(#pd92fc4fd08)">
     <use style="fill:none;stroke:#000000;stroke-linecap:butt;" x="0" xlink:href="#C0_2_a3c1bc5a6d" y="432.0"/>
    </g>
    <g clip-path="url(#pd92fc4fd08)">
     <use style="fill:none;stroke:#000000;stroke-linecap:butt;" x="0" xlink:href="#C0_3_974ae28223" y="432.0"/>
    </g>
    <g clip-path="url(#pd92fc4fd08)">
     <use style="fill:none;stroke:#000000;stroke-linecap:butt;" x="0" xlink:href="#C0_4_161856600a" y="432.0"/>
    </g>
   </g>
   <g id="LineCollection_2">
    <defs>
     <path d="
M301.81 -218.825
L301.81 -228.221" id="C1_0_caaac64c73"/>
     <path d="
M243.261 -195.009
L243.261 -208.149" id="C1_1_528440a824"/>
     <path d="
M265.628 -209.18
L265.628 -217.459" id="C1_2_ef9b4935b7"/>
     <path d="
M377.594 -206.728
L377.594 -226.12" id="C1_3_ae93c8364d"/>
     <path d="
M406.97 -219.203
L406.97 -250.228" id="C1_4_5e0c172c72"/>
    </defs>
    <g clip-path="url(#pd92fc4fd08)">
     <use style="fill:none;stroke:#000000;stroke-linecap:butt;" x="0" xlink:href="#C1_0_caaac64c73" y="432.0"/>
    </g>
    <g clip-path="url(#pd92fc4fd08)">
     <use style="fill:none;stroke:#000000;stroke-linecap:butt;" x="0" xlink:href="#C1_1_528440a824" y="432.0"/>
    </g>
    <g clip-path="url(#pd92fc4fd08)">
     <use style="fill:none;stroke:#000000;stroke-linecap:butt;" x="0" xlink:href="#C1_2_ef9b4935b7" y="432.0"/>
    </g>
    <g clip-path="url(#pd92fc4fd08)">
     <use style="fill:none;stroke:#000000;stroke-linecap:butt;" x="0" xlink:href="#C1_3_ae93c8364d" y="432.0"/>
    </g>
    <g clip-path="url(#pd92fc4fd08)">
     <use style="fill:none;stroke:#000000;stroke-linecap:butt;" x="0" xlink:href="#C1_4_5e0c172c72" y="432.0"/>
    </g>
   </g>
   <g id="LineCollection_3">
    <defs>
     <path d="
M298.277 -324.453
L336.445 -324.453" id="C2_0_4aeeb7fff3"/>
     <path d="
M346.511 -290.218
L361.682 -290.218" id="C2_1_5f4f77d6b0"/>
     <path d="
M339.581 -289.947
L356.884 -289.947" id="C2_2_bdfe2f64f7"/>
     <path d="
M316.382 -291.786
L333.465 -291.786" id="C2_3_ff59744ee5"/>
     <path d="
M335.786 -282.605
L345.994 -282.605" id="C2_4_fe36fd1584"/>
    </defs>
    <g clip-path="url(#pd92fc4fd08)">
     <use style="fill:none;stroke:#000000;stroke-linecap:butt;" x="0" xlink:href="#C2_0_4aeeb7fff3" y="432.0"/>
    </g>
    <g clip-path="url(#pd92fc4fd08)">
     <use style="fill:none;stroke:#000000;stroke-linecap:butt;" x="0" xlink:href="#C2_1_5f4f77d6b0" y="432.0"/>
    </g>
    <g clip-path="url(#pd92fc4fd08)">
     <use style="fill:none;stroke:#000000;stroke-linecap:butt;" x="0" xlink:href="#C2_2_bdfe2f64f7" y="432.0"/>
    </g>
    <g clip-path="url(#pd92fc4fd08)">
     <use style="fill:none;stroke:#000000;stroke-linecap:butt;" x="0" xlink:href="#C2_3_ff59744ee5" y="432.0"/>
    </g>
    <g clip-path="url(#pd92fc4fd08)">
     <use style="fill:none;stroke:#000000;stroke-linecap:butt;" x="0" xlink:href="#C2_4_fe36fd1584" y="432.0"/>
    </g>
   </g>
   <g id="LineCollection_4">
    <defs>
     <path d="
M317.361 -314.248
L317.361 -334.658" id="C3_0_726e25bcdb"/>
     <path d="
M354.097 -276.189
L354.097 -304.247" id="C3_1_c9ebf93739"/>
     <path d="
M348.232 -284.977
L348.232 -294.916" id="C3_2_f4c7ee7c6c"/>
     <path d="
M324.923 -286.231
L324.923 -297.34" id="C3_3_ba630b85a7"/>
     <path d="
M340.89 -267.947
L340.89 -297.264" id="C3_4_59018cdb7c"/>
    </defs>
    <g clip-path="url(#pd92fc4fd08)">
     <use style="fill:none;stroke:#000000;stroke-linecap:butt;" x="0" xlink:href="#C3_0_726e25bcdb" y="432.0"/>
    </g>
    <g clip-path="url(#pd92fc4fd08)">
     <use style="fill:none;stroke:#000000;stroke-linecap:butt;" x="0" xlink:href="#C3_1_c9ebf93739" y="432.0"/>
    </g>
    <g clip-path="url(#pd92fc4fd08)">
     <use style="fill:none;stroke:#000000;stroke-linecap:butt;" x="0" xlink:href="#C3_2_f4c7ee7c6c" y="432.0"/>
    </g>
    <g clip-path="url(#pd92fc4fd08)">
     <use style="fill:none;stroke:#000000;stroke-linecap:butt;" x="0" xlink:href="#C3_3_ba630b85a7" y="432.0"/>
    </g>
    <g clip-path="url(#pd92fc4fd08)">
     <use style="fill:none;stroke:#000000;stroke-linecap:butt;" x="0" xlink:href="#C3_4_59018cdb7c" y="432.0"/>
    </g>
   </g>
   <g id="LineCollection_5">
    <defs>
     <path d="
M398.432 -318.767
L416.166 -318.767" id="C4_0_213691ae26"/>
     <path d="
M361.162 -314.923
L382.363 -314.923" id="C4_1_e4b5f6d4bd"/>
     <path d="
M241.397 -310.344
L263.832 -310.344" id="C4_2_7dba5f013b"/>
     <path d="
M448.706 -308.8
L464.819 -308.8" id="C4_3_8957470a37"/>
     <path d="
M394.913 -317.159
L419.352 -317.159" id="C4_4_84109dfb57"/>
    </defs>
    <g clip-path="url(#pd92fc4fd08)">
     <use style="fill:none;stroke:#000000;stroke-linecap:butt;" x="0" xlink:href="#C4_0_213691ae26" y="432.0"/>
    </g>
    <g clip-path="url(#pd92fc4fd08)">
     <use style="fill:none;stroke:#000000;stroke-linecap:butt;" x="0" xlink:href="#C4_1_e4b5f6d4bd" y="432.0"/>
    </g>
    <g clip-path="url(#pd92fc4fd08)">
     <use style="fill:none;stroke:#000000;stroke-linecap:butt;" x="0" xlink:href="#C4_2_7dba5f013b" y="432.0"/>
    </g>
    <g clip-path="url(#pd92fc4fd08)">
     <use style="fill:none;stroke:#000000;stroke-linecap:butt;" x="0" xlink:href="#C4_3_8957470a37" y="432.0"/>
    </g>
    <g clip-path="url(#pd92fc4fd08)">
     <use style="fill:none;stroke:#000000;stroke-linecap:butt;" x="0" xlink:href="#C4_4_84109dfb57" y="432.0"/>
    </g>
   </g>
   <g id="LineCollection_6">
    <defs>
     <path d="
M407.299 -295.443
L407.299 -342.092" id="C5_0_627c2867e6"/>
     <path d="
M371.763 -296.442
L371.763 -333.403" id="C5_1_ed2db6dcf7"/>
     <path d="
M252.614 -307.166
L252.614 -313.522" id="C5_2_3e63250e32"/>
     <path d="
M456.763 -292.8
L456.763 -324.8" id="C5_3_6695538c51"/>
     <path d="
M407.133 -299.998
L407.133 -334.32" id="C5_4_c77f24459f"/>
    </defs>
    <g clip-path="url(#pd92fc4fd08)">
     <use style="fill:none;stroke:#000000;stroke-linecap:butt;" x="0" xlink:href="#C5_0_627c2867e6" y="432.0"/>
    </g>
    <g clip-path="url(#pd92fc4fd08)">
     <use style="fill:none;stroke:#000000;stroke-linecap:butt;" x="0" xlink:href="#C5_1_ed2db6dcf7" y="432.0"/>
    </g>
    <g clip-path="url(#pd92fc4fd08)">
     <use style="fill:none;stroke:#000000;stroke-linecap:butt;" x="0" xlink:href="#C5_2_3e63250e32" y="432.0"/>
    </g>
    <g clip-path="url(#pd92fc4fd08)">
     <use style="fill:none;stroke:#000000;stroke-linecap:butt;" x="0" xlink:href="#C5_3_6695538c51" y="432.0"/>
    </g>
    <g clip-path="url(#pd92fc4fd08)">
     <use style="fill:none;stroke:#000000;stroke-linecap:butt;" x="0" xlink:href="#C5_4_c77f24459f" y="432.0"/>
    </g>
   </g>
   <g id="matplotlib.axis_1">
    <g id="xtick_1">
     <g id="line2d_5">
      <defs>
       <path d="
M0 0
L0 -4" id="m7367ac2c1d"/>
      </defs>
      <g>
       <use style="stroke:#000000;stroke-linecap:butt;stroke-width:0.5;" x="117.637194967" xlink:href="#m7367ac2c1d" y="388.8"/>
      </g>
     </g>
     <g id="line2d_6">
      <defs>
       <path d="
M0 0
L0 4" id="m2828c07c69"/>
      </defs>
      <g>
       <use style="stroke:#000000;stroke-linecap:butt;stroke-width:0.5;" x="117.637194967" xlink:href="#m2828c07c69" y="43.2"/>
      </g>
     </g>
     <g id="text_1">
      <!-- 0.0 -->
      <defs>
       <path d="
M31.7812 66.4062
Q24.1719 66.4062 20.3281 58.9062
Q16.5 51.4219 16.5 36.375
Q16.5 21.3906 20.3281 13.8906
Q24.1719 6.39062 31.7812 6.39062
Q39.4531 6.39062 43.2812 13.8906
Q47.125 21.3906 47.125 36.375
Q47.125 51.4219 43.2812 58.9062
Q39.4531 66.4062 31.7812 66.4062
M31.7812 74.2188
Q44.0469 74.2188 50.5156 64.5156
Q56.9844 54.8281 56.9844 36.375
Q56.9844 17.9688 50.5156 8.26562
Q44.0469 -1.42188 31.7812 -1.42188
Q19.5312 -1.42188 13.0625 8.26562
Q6.59375 17.9688 6.59375 36.375
Q6.59375 54.8281 13.0625 64.5156
Q19.5312 74.2188 31.7812 74.2188" id="BitstreamVeraSans-Roman-30"/>
       <path d="
M10.6875 12.4062
L21 12.4062
L21 0
L10.6875 0
z
" id="BitstreamVeraSans-Roman-2e"/>
      </defs>
      <g transform="translate(108.889382467 401.70625)scale(0.12 -0.12)">
       <use xlink:href="#BitstreamVeraSans-Roman-30"/>
       <use x="63.623046875" xlink:href="#BitstreamVeraSans-Roman-2e"/>
       <use x="95.41015625" xlink:href="#BitstreamVeraSans-Roman-30"/>
      </g>
     </g>
    </g>
    <g id="xtick_2">
     <g id="line2d_7">
      <defs>
       <path d="
M0 0
L0 -4" id="m7367ac2c1d"/>
      </defs>
      <g>
       <use style="stroke:#000000;stroke-linecap:butt;stroke-width:0.5;" x="193.074573221" xlink:href="#m7367ac2c1d" y="388.8"/>
      </g>
     </g>
     <g id="line2d_8">
      <defs>
       <path d="
M0 0
L0 4" id="m2828c07c69"/>
      </defs>
      <g>
       <use style="stroke:#000000;stroke-linecap:butt;stroke-width:0.5;" x="193.074573221" xlink:href="#m2828c07c69" y="43.2"/>
      </g>
     </g>
     <g id="text_2">
      <!-- 0.5 -->
      <defs>
       <path d="
M10.7969 72.9062
L49.5156 72.9062
L49.5156 64.5938
L19.8281 64.5938
L19.8281 46.7344
Q21.9688 47.4688 24.1094 47.8281
Q26.2656 48.1875 28.4219 48.1875
Q40.625 48.1875 47.75 41.5
Q54.8906 34.8125 54.8906 23.3906
Q54.8906 11.625 47.5625 5.09375
Q40.2344 -1.42188 26.9062 -1.42188
Q22.3125 -1.42188 17.5469 -0.640625
Q12.7969 0.140625 7.71875 1.70312
L7.71875 11.625
Q12.1094 9.23438 16.7969 8.0625
Q21.4844 6.89062 26.7031 6.89062
Q35.1562 6.89062 40.0781 11.3281
Q45.0156 15.7656 45.0156 23.3906
Q45.0156 31 40.0781 35.4375
Q35.1562 39.8906 26.7031 39.8906
Q22.75 39.8906 18.8125 39.0156
Q14.8906 38.1406 10.7969 36.2812
z
" id="BitstreamVeraSans-Roman-35"/>
      </defs>
      <g transform="translate(184.452385721 401.70625)scale(0.12 -0.12)">
       <use xlink:href="#BitstreamVeraSans-Roman-30"/>
       <use x="63.623046875" xlink:href="#BitstreamVeraSans-Roman-2e"/>
       <use x="95.41015625" xlink:href="#BitstreamVeraSans-Roman-35"/>
      </g>
     </g>
    </g>
    <g id="xtick_3">
     <g id="line2d_9">
      <defs>
       <path d="
M0 0
L0 -4" id="m7367ac2c1d"/>
      </defs>
      <g>
       <use style="stroke:#000000;stroke-linecap:butt;stroke-width:0.5;" x="268.511951475" xlink:href="#m7367ac2c1d" y="388.8"/>
      </g>
     </g>
     <g id="line2d_10">
      <defs>
       <path d="
M0 0
L0 4" id="m2828c07c69"/>
      </defs>
      <g>
       <use style="stroke:#000000;stroke-linecap:butt;stroke-width:0.5;" x="268.511951475" xlink:href="#m2828c07c69" y="43.2"/>
      </g>
     </g>
     <g id="text_3">
      <!-- 1.0 -->
      <defs>
       <path d="
M12.4062 8.29688
L28.5156 8.29688
L28.5156 63.9219
L10.9844 60.4062
L10.9844 69.3906
L28.4219 72.9062
L38.2812 72.9062
L38.2812 8.29688
L54.3906 8.29688
L54.3906 0
L12.4062 0
z
" id="BitstreamVeraSans-Roman-31"/>
      </defs>
      <g transform="translate(260.027576475 401.70625)scale(0.12 -0.12)">
       <use xlink:href="#BitstreamVeraSans-Roman-31"/>
       <use x="63.623046875" xlink:href="#BitstreamVeraSans-Roman-2e"/>
       <use x="95.41015625" xlink:href="#BitstreamVeraSans-Roman-30"/>
      </g>
     </g>
    </g>
    <g id="xtick_4">
     <g id="line2d_11">
      <defs>
       <path d="
M0 0
L0 -4" id="m7367ac2c1d"/>
      </defs>
      <g>
       <use style="stroke:#000000;stroke-linecap:butt;stroke-width:0.5;" x="343.949329729" xlink:href="#m7367ac2c1d" y="388.8"/>
      </g>
     </g>
     <g id="line2d_12">
      <defs>
       <path d="
M0 0
L0 4" id="m2828c07c69"/>
      </defs>
      <g>
       <use style="stroke:#000000;stroke-linecap:butt;stroke-width:0.5;" x="343.949329729" xlink:href="#m2828c07c69" y="43.2"/>
      </g>
     </g>
     <g id="text_4">
      <!-- 1.5 -->
      <g transform="translate(335.590579729 401.54875)scale(0.12 -0.12)">
       <use xlink:href="#BitstreamVeraSans-Roman-31"/>
       <use x="63.623046875" xlink:href="#BitstreamVeraSans-Roman-2e"/>
       <use x="95.41015625" xlink:href="#BitstreamVeraSans-Roman-35"/>
      </g>
     </g>
    </g>
    <g id="xtick_5">
     <g id="line2d_13">
      <defs>
       <path d="
M0 0
L0 -4" id="m7367ac2c1d"/>
      </defs>
      <g>
       <use style="stroke:#000000;stroke-linecap:butt;stroke-width:0.5;" x="419.386707983" xlink:href="#m7367ac2c1d" y="388.8"/>
      </g>
     </g>
     <g id="line2d_14">
      <defs>
       <path d="
M0 0
L0 4" id="m2828c07c69"/>
      </defs>
      <g>
       <use style="stroke:#000000;stroke-linecap:butt;stroke-width:0.5;" x="419.386707983" xlink:href="#m2828c07c69" y="43.2"/>
      </g>
     </g>
     <g id="text_5">
      <!-- 2.0 -->
      <defs>
       <path d="
M19.1875 8.29688
L53.6094 8.29688
L53.6094 0
L7.32812 0
L7.32812 8.29688
Q12.9375 14.1094 22.625 23.8906
Q32.3281 33.6875 34.8125 36.5312
Q39.5469 41.8438 41.4219 45.5312
Q43.3125 49.2188 43.3125 52.7812
Q43.3125 58.5938 39.2344 62.25
Q35.1562 65.9219 28.6094 65.9219
Q23.9688 65.9219 18.8125 64.3125
Q13.6719 62.7031 7.8125 59.4219
L7.8125 69.3906
Q13.7656 71.7812 18.9375 73
Q24.125 74.2188 28.4219 74.2188
Q39.75 74.2188 46.4844 68.5469
Q53.2188 62.8906 53.2188 53.4219
Q53.2188 48.9219 51.5312 44.8906
Q49.8594 40.875 45.4062 35.4062
Q44.1875 33.9844 37.6406 27.2188
Q31.1094 20.4531 19.1875 8.29688" id="BitstreamVeraSans-Roman-32"/>
      </defs>
      <g transform="translate(410.682957983 401.70625)scale(0.12 -0.12)">
       <use xlink:href="#BitstreamVeraSans-Roman-32"/>
       <use x="63.623046875" xlink:href="#BitstreamVeraSans-Roman-2e"/>
       <use x="95.41015625" xlink:href="#BitstreamVeraSans-Roman-30"/>
      </g>
     </g>
    </g>
    <g id="text_6">
     <!-- model dimension -->
     <defs>
      <path id="BitstreamVeraSans-Roman-20"/>
      <path d="
M54.8906 33.0156
L54.8906 0
L45.9062 0
L45.9062 32.7188
Q45.9062 40.4844 42.875 44.3281
Q39.8438 48.1875 33.7969 48.1875
Q26.5156 48.1875 22.3125 43.5469
Q18.1094 38.9219 18.1094 30.9062
L18.1094 0
L9.07812 0
L9.07812 54.6875
L18.1094 54.6875
L18.1094 46.1875
Q21.3438 51.125 25.7031 53.5625
Q30.0781 56 35.7969 56
Q45.2188 56 50.0469 50.1719
Q54.8906 44.3438 54.8906 33.0156" id="BitstreamVeraSans-Roman-6e"/>
      <path d="
M52 44.1875
Q55.375 50.25 60.0625 53.125
Q64.75 56 71.0938 56
Q79.6406 56 84.2812 50.0156
Q88.9219 44.0469 88.9219 33.0156
L88.9219 0
L79.8906 0
L79.8906 32.7188
Q79.8906 40.5781 77.0938 44.375
Q74.3125 48.1875 68.6094 48.1875
Q61.625 48.1875 57.5625 43.5469
Q53.5156 38.9219 53.5156 30.9062
L53.5156 0
L44.4844 0
L44.4844 32.7188
Q44.4844 40.625 41.7031 44.4062
Q38.9219 48.1875 33.1094 48.1875
Q26.2188 48.1875 22.1562 43.5312
Q18.1094 38.875 18.1094 30.9062
L18.1094 0
L9.07812 0
L9.07812 54.6875
L18.1094 54.6875
L18.1094 46.1875
Q21.1875 51.2188 25.4844 53.6094
Q29.7812 56 35.6875 56
Q41.6562 56 45.8281 52.9688
Q50 49.9531 52 44.1875" id="BitstreamVeraSans-Roman-6d"/>
      <path d="
M30.6094 48.3906
Q23.3906 48.3906 19.1875 42.75
Q14.9844 37.1094 14.9844 27.2969
Q14.9844 17.4844 19.1562 11.8438
Q23.3438 6.20312 30.6094 6.20312
Q37.7969 6.20312 41.9844 11.8594
Q46.1875 17.5312 46.1875 27.2969
Q46.1875 37.0156 41.9844 42.7031
Q37.7969 48.3906 30.6094 48.3906
M30.6094 56
Q42.3281 56 49.0156 48.375
Q55.7188 40.7656 55.7188 27.2969
Q55.7188 13.875 49.0156 6.21875
Q42.3281 -1.42188 30.6094 -1.42188
Q18.8438 -1.42188 12.1719 6.21875
Q5.51562 13.875 5.51562 27.2969
Q5.51562 40.7656 12.1719 48.375
Q18.8438 56 30.6094 56" id="BitstreamVeraSans-Roman-6f"/>
      <path d="
M9.42188 75.9844
L18.4062 75.9844
L18.4062 0
L9.42188 0
z
" id="BitstreamVeraSans-Roman-6c"/>
      <path d="
M9.42188 54.6875
L18.4062 54.6875
L18.4062 0
L9.42188 0
z

M9.42188 75.9844
L18.4062 75.9844
L18.4062 64.5938
L9.42188 64.5938
z
" id="BitstreamVeraSans-Roman-69"/>
      <path d="
M56.2031 29.5938
L56.2031 25.2031
L14.8906 25.2031
Q15.4844 15.9219 20.4844 11.0625
Q25.4844 6.20312 34.4219 6.20312
Q39.5938 6.20312 44.4531 7.46875
Q49.3125 8.73438 54.1094 11.2812
L54.1094 2.78125
Q49.2656 0.734375 44.1875 -0.34375
Q39.1094 -1.42188 33.8906 -1.42188
Q20.7969 -1.42188 13.1562 6.1875
Q5.51562 13.8125 5.51562 26.8125
Q5.51562 40.2344 12.7656 48.1094
Q20.0156 56 32.3281 56
Q43.3594 56 49.7812 48.8906
Q56.2031 41.7969 56.2031 29.5938
M47.2188 32.2344
Q47.125 39.5938 43.0938 43.9844
Q39.0625 48.3906 32.4219 48.3906
Q24.9062 48.3906 20.3906 44.1406
Q15.875 39.8906 15.1875 32.1719
z
" id="BitstreamVeraSans-Roman-65"/>
      <path d="
M45.4062 46.3906
L45.4062 75.9844
L54.3906 75.9844
L54.3906 0
L45.4062 0
L45.4062 8.20312
Q42.5781 3.32812 38.25 0.953125
Q33.9375 -1.42188 27.875 -1.42188
Q17.9688 -1.42188 11.7344 6.48438
Q5.51562 14.4062 5.51562 27.2969
Q5.51562 40.1875 11.7344 48.0938
Q17.9688 56 27.875 56
Q33.9375 56 38.25 53.625
Q42.5781 51.2656 45.4062 46.3906
M14.7969 27.2969
Q14.7969 17.3906 18.875 11.75
Q22.9531 6.10938 30.0781 6.10938
Q37.2031 6.10938 41.2969 11.75
Q45.4062 17.3906 45.4062 27.2969
Q45.4062 37.2031 41.2969 42.8438
Q37.2031 48.4844 30.0781 48.4844
Q22.9531 48.4844 18.875 42.8438
Q14.7969 37.2031 14.7969 27.2969" id="BitstreamVeraSans-Roman-64"/>
      <path d="
M44.2812 53.0781
L44.2812 44.5781
Q40.4844 46.5312 36.375 47.5
Q32.2812 48.4844 27.875 48.4844
Q21.1875 48.4844 17.8438 46.4375
Q14.5 44.3906 14.5 40.2812
Q14.5 37.1562 16.8906 35.375
Q19.2812 33.5938 26.5156 31.9844
L29.5938 31.2969
Q39.1562 29.25 43.1875 25.5156
Q47.2188 21.7812 47.2188 15.0938
Q47.2188 7.46875 41.1875 3.01562
Q35.1562 -1.42188 24.6094 -1.42188
Q20.2188 -1.42188 15.4531 -0.5625
Q10.6875 0.296875 5.42188 2
L5.42188 11.2812
Q10.4062 8.6875 15.2344 7.39062
Q20.0625 6.10938 24.8125 6.10938
Q31.1562 6.10938 34.5625 8.28125
Q37.9844 10.4531 37.9844 14.4062
Q37.9844 18.0625 35.5156 20.0156
Q33.0625 21.9688 24.7031 23.7812
L21.5781 24.5156
Q13.2344 26.2656 9.51562 29.9062
Q5.8125 33.5469 5.8125 39.8906
Q5.8125 47.6094 11.2812 51.7969
Q16.75 56 26.8125 56
Q31.7812 56 36.1719 55.2656
Q40.5781 54.5469 44.2812 53.0781" id="BitstreamVeraSans-Roman-73"/>
     </defs>
     <g transform="translate(244.0378125 415.995)scale(0.12 -0.12)">
      <use xlink:href="#BitstreamVeraSans-Roman-6d"/>
      <use x="97.412109375" xlink:href="#BitstreamVeraSans-Roman-6f"/>
      <use x="158.59375" xlink:href="#BitstreamVeraSans-Roman-64"/>
      <use x="222.0703125" xlink:href="#BitstreamVeraSans-Roman-65"/>
      <use x="283.59375" xlink:href="#BitstreamVeraSans-Roman-6c"/>
      <use x="311.376953125" xlink:href="#BitstreamVeraSans-Roman-20"/>
      <use x="343.1640625" xlink:href="#BitstreamVeraSans-Roman-64"/>
      <use x="406.640625" xlink:href="#BitstreamVeraSans-Roman-69"/>
      <use x="434.423828125" xlink:href="#BitstreamVeraSans-Roman-6d"/>
      <use x="531.8359375" xlink:href="#BitstreamVeraSans-Roman-65"/>
      <use x="593.359375" xlink:href="#BitstreamVeraSans-Roman-6e"/>
      <use x="656.73828125" xlink:href="#BitstreamVeraSans-Roman-73"/>
      <use x="708.837890625" xlink:href="#BitstreamVeraSans-Roman-69"/>
      <use x="736.62109375" xlink:href="#BitstreamVeraSans-Roman-6f"/>
      <use x="797.802734375" xlink:href="#BitstreamVeraSans-Roman-6e"/>
     </g>
    </g>
   </g>
   <g id="matplotlib.axis_2">
    <g id="ytick_1">
     <g id="line2d_15">
      <defs>
       <path d="
M0 0
L4 0" id="mc2e3f14dc8"/>
      </defs>
      <g>
       <use style="stroke:#000000;stroke-linecap:butt;stroke-width:0.5;" x="117.637194967" xlink:href="#mc2e3f14dc8" y="388.8"/>
      </g>
     </g>
     <g id="line2d_16">
      <defs>
       <path d="
M0 0
L-4 0" id="m082ee89fef"/>
      </defs>
      <g>
       <use style="stroke:#000000;stroke-linecap:butt;stroke-width:0.5;" x="472.762805033" xlink:href="#m082ee89fef" y="388.8"/>
      </g>
     </g>
     <g id="text_7">
      <!-- 0.0 -->
      <g transform="translate(96.1415699666 393.1678125)scale(0.12 -0.12)">
       <use xlink:href="#BitstreamVeraSans-Roman-30"/>
       <use x="63.623046875" xlink:href="#BitstreamVeraSans-Roman-2e"/>
       <use x="95.41015625" xlink:href="#BitstreamVeraSans-Roman-30"/>
      </g>
     </g>
    </g>
    <g id="ytick_2">
     <g id="line2d_17">
      <defs>
       <path d="
M0 0
L4 0" id="mc2e3f14dc8"/>
      </defs>
      <g>
       <use style="stroke:#000000;stroke-linecap:butt;stroke-width:0.5;" x="117.637194967" xlink:href="#mc2e3f14dc8" y="313.362621746"/>
      </g>
     </g>
     <g id="line2d_18">
      <defs>
       <path d="
M0 0
L-4 0" id="m082ee89fef"/>
      </defs>
      <g>
       <use style="stroke:#000000;stroke-linecap:butt;stroke-width:0.5;" x="472.762805033" xlink:href="#m082ee89fef" y="313.362621746"/>
      </g>
     </g>
     <g id="text_8">
      <!-- 0.5 -->
      <g transform="translate(96.3928199666 317.730434246)scale(0.12 -0.12)">
       <use xlink:href="#BitstreamVeraSans-Roman-30"/>
       <use x="63.623046875" xlink:href="#BitstreamVeraSans-Roman-2e"/>
       <use x="95.41015625" xlink:href="#BitstreamVeraSans-Roman-35"/>
      </g>
     </g>
    </g>
    <g id="ytick_3">
     <g id="line2d_19">
      <defs>
       <path d="
M0 0
L4 0" id="mc2e3f14dc8"/>
      </defs>
      <g>
       <use style="stroke:#000000;stroke-linecap:butt;stroke-width:0.5;" x="117.637194967" xlink:href="#mc2e3f14dc8" y="237.925243492"/>
      </g>
     </g>
     <g id="line2d_20">
      <defs>
       <path d="
M0 0
L-4 0" id="m082ee89fef"/>
      </defs>
      <g>
       <use style="stroke:#000000;stroke-linecap:butt;stroke-width:0.5;" x="472.762805033" xlink:href="#m082ee89fef" y="237.925243492"/>
      </g>
     </g>
     <g id="text_9">
      <!-- 1.0 -->
      <g transform="translate(96.6684449666 242.293055992)scale(0.12 -0.12)">
       <use xlink:href="#BitstreamVeraSans-Roman-31"/>
       <use x="63.623046875" xlink:href="#BitstreamVeraSans-Roman-2e"/>
       <use x="95.41015625" xlink:href="#BitstreamVeraSans-Roman-30"/>
      </g>
     </g>
    </g>
    <g id="ytick_4">
     <g id="line2d_21">
      <defs>
       <path d="
M0 0
L4 0" id="mc2e3f14dc8"/>
      </defs>
      <g>
       <use style="stroke:#000000;stroke-linecap:butt;stroke-width:0.5;" x="117.637194967" xlink:href="#mc2e3f14dc8" y="162.487865238"/>
      </g>
     </g>
     <g id="line2d_22">
      <defs>
       <path d="
M0 0
L-4 0" id="m082ee89fef"/>
      </defs>
      <g>
       <use style="stroke:#000000;stroke-linecap:butt;stroke-width:0.5;" x="472.762805033" xlink:href="#m082ee89fef" y="162.487865238"/>
      </g>
     </g>
     <g id="text_10">
      <!-- 1.5 -->
      <g transform="translate(96.9196949666 166.776927738)scale(0.12 -0.12)">
       <use xlink:href="#BitstreamVeraSans-Roman-31"/>
       <use x="63.623046875" xlink:href="#BitstreamVeraSans-Roman-2e"/>
       <use x="95.41015625" xlink:href="#BitstreamVeraSans-Roman-35"/>
      </g>
     </g>
    </g>
    <g id="ytick_5">
     <g id="line2d_23">
      <defs>
       <path d="
M0 0
L4 0" id="mc2e3f14dc8"/>
      </defs>
      <g>
       <use style="stroke:#000000;stroke-linecap:butt;stroke-width:0.5;" x="117.637194967" xlink:href="#mc2e3f14dc8" y="87.0504869839"/>
      </g>
     </g>
     <g id="line2d_24">
      <defs>
       <path d="
M0 0
L-4 0" id="m082ee89fef"/>
      </defs>
      <g>
       <use style="stroke:#000000;stroke-linecap:butt;stroke-width:0.5;" x="472.762805033" xlink:href="#m082ee89fef" y="87.0504869839"/>
      </g>
     </g>
     <g id="text_11">
      <!-- 2.0 -->
      <g transform="translate(96.2296949666 91.4182994839)scale(0.12 -0.12)">
       <use xlink:href="#BitstreamVeraSans-Roman-32"/>
       <use x="63.623046875" xlink:href="#BitstreamVeraSans-Roman-2e"/>
       <use x="95.41015625" xlink:href="#BitstreamVeraSans-Roman-30"/>
      </g>
     </g>
    </g>
    <g id="text_12">
     <!-- data dimension -->
     <defs>
      <path d="
M18.3125 70.2188
L18.3125 54.6875
L36.8125 54.6875
L36.8125 47.7031
L18.3125 47.7031
L18.3125 18.0156
Q18.3125 11.3281 20.1406 9.42188
Q21.9688 7.51562 27.5938 7.51562
L36.8125 7.51562
L36.8125 0
L27.5938 0
Q17.1875 0 13.2344 3.875
Q9.28125 7.76562 9.28125 18.0156
L9.28125 47.7031
L2.6875 47.7031
L2.6875 54.6875
L9.28125 54.6875
L9.28125 70.2188
z
" id="BitstreamVeraSans-Roman-74"/>
      <path d="
M34.2812 27.4844
Q23.3906 27.4844 19.1875 25
Q14.9844 22.5156 14.9844 16.5
Q14.9844 11.7188 18.1406 8.90625
Q21.2969 6.10938 26.7031 6.10938
Q34.1875 6.10938 38.7031 11.4062
Q43.2188 16.7031 43.2188 25.4844
L43.2188 27.4844
z

M52.2031 31.2031
L52.2031 0
L43.2188 0
L43.2188 8.29688
Q40.1406 3.32812 35.5469 0.953125
Q30.9531 -1.42188 24.3125 -1.42188
Q15.9219 -1.42188 10.9531 3.29688
Q6 8.01562 6 15.9219
Q6 25.1406 12.1719 29.8281
Q18.3594 34.5156 30.6094 34.5156
L43.2188 34.5156
L43.2188 35.4062
Q43.2188 41.6094 39.1406 45
Q35.0625 48.3906 27.6875 48.3906
Q23 48.3906 18.5469 47.2656
Q14.1094 46.1406 10.0156 43.8906
L10.0156 52.2031
Q14.9375 54.1094 19.5781 55.0469
Q24.2188 56 28.6094 56
Q40.4844 56 46.3438 49.8438
Q52.2031 43.7031 52.2031 31.2031" id="BitstreamVeraSans-Roman-61"/>
     </defs>
     <g transform="translate(91.1415699666 261.823125)rotate(-90.0)scale(0.12 -0.12)">
      <use xlink:href="#BitstreamVeraSans-Roman-64"/>
      <use x="63.4765625" xlink:href="#BitstreamVeraSans-Roman-61"/>
      <use x="124.755859375" xlink:href="#BitstreamVeraSans-Roman-74"/>
      <use x="163.96484375" xlink:href="#BitstreamVeraSans-Roman-61"/>
      <use x="225.244140625" xlink:href="#BitstreamVeraSans-Roman-20"/>
      <use x="257.03125" xlink:href="#BitstreamVeraSans-Roman-64"/>
      <use x="320.5078125" xlink:href="#BitstreamVeraSans-Roman-69"/>
      <use x="348.291015625" xlink:href="#BitstreamVeraSans-Roman-6d"/>
      <use x="445.703125" xlink:href="#BitstreamVeraSans-Roman-65"/>
      <use x="507.2265625" xlink:href="#BitstreamVeraSans-Roman-6e"/>
      <use x="570.60546875" xlink:href="#BitstreamVeraSans-Roman-73"/>
      <use x="622.705078125" xlink:href="#BitstreamVeraSans-Roman-69"/>
      <use x="650.48828125" xlink:href="#BitstreamVeraSans-Roman-6f"/>
      <use x="711.669921875" xlink:href="#BitstreamVeraSans-Roman-6e"/>
     </g>
    </g>
   </g>
   <g id="patch_3">
    <path d="
M117.637 43.2
L472.763 43.2" style="fill:none;stroke:#000000;"/>
   </g>
   <g id="patch_4">
    <path d="
M472.763 388.8
L472.763 43.2" style="fill:none;stroke:#000000;"/>
   </g>
   <g id="patch_5">
    <path d="
M117.637 388.8
L472.763 388.8" style="fill:none;stroke:#000000;"/>
   </g>
   <g id="patch_6">
    <path d="
M117.637 388.8
L117.637 43.2" style="fill:none;stroke:#000000;"/>
   </g>
   <g id="line2d_25"/>
   <g id="line2d_26"/>
   <g id="line2d_27"/>
   <g id="PathCollection_1">
    <defs>
     <path d="
M0 4.1833
C1.10942 4.1833 2.17356 3.74252 2.95804 2.95804
C3.74252 2.17356 4.1833 1.10942 4.1833 0
C4.1833 -1.10942 3.74252 -2.17356 2.95804 -2.95804
C2.17356 -3.74252 1.10942 -4.1833 0 -4.1833
C-1.10942 -4.1833 -2.17356 -3.74252 -2.95804 -2.95804
C-3.74252 -2.17356 -4.1833 -1.10942 -4.1833 0
C-4.1833 1.10942 -3.74252 2.17356 -2.95804 2.95804
C-2.17356 3.74252 -1.10942 4.1833 0 4.1833
z
" id="C6_0_43ed0d6c61"/>
     <path d="
M0 4.17971
C1.10847 4.17971 2.17169 3.73931 2.9555 2.9555
C3.73931 2.17169 4.17971 1.10847 4.17971 0
C4.17971 -1.10847 3.73931 -2.17169 2.9555 -2.9555
C2.17169 -3.73931 1.10847 -4.17971 0 -4.17971
C-1.10847 -4.17971 -2.17169 -3.73931 -2.9555 -2.9555
C-3.73931 -2.17169 -4.17971 -1.10847 -4.17971 0
C-4.17971 1.10847 -3.73931 2.17169 -2.9555 2.9555
C-2.17169 3.73931 -1.10847 4.17971 0 4.17971
z
" id="C6_1_2986f93daa"/>
     <path d="
M0 4.14329
C1.09881 4.14329 2.15277 3.70673 2.92975 2.92975
C3.70673 2.15277 4.14329 1.09881 4.14329 0
C4.14329 -1.09881 3.70673 -2.15277 2.92975 -2.92975
C2.15277 -3.70673 1.09881 -4.14329 0 -4.14329
C-1.09881 -4.14329 -2.15277 -3.70673 -2.92975 -2.92975
C-3.70673 -2.15277 -4.14329 -1.09881 -4.14329 0
C-4.14329 1.09881 -3.70673 2.15277 -2.92975 2.92975
C-2.15277 3.70673 -1.09881 4.14329 0 4.14329
z
" id="C6_2_33f8bd2168"/>
     <path d="
M0 4.09458
C1.0859 4.09458 2.12746 3.66315 2.89531 2.89531
C3.66315 2.12746 4.09458 1.0859 4.09458 0
C4.09458 -1.0859 3.66315 -2.12746 2.89531 -2.89531
C2.12746 -3.66315 1.0859 -4.09458 0 -4.09458
C-1.0859 -4.09458 -2.12746 -3.66315 -2.89531 -2.89531
C-3.66315 -2.12746 -4.09458 -1.0859 -4.09458 0
C-4.09458 1.0859 -3.66315 2.12746 -2.89531 2.89531
C-2.12746 3.66315 -1.0859 4.09458 0 4.09458
z
" id="C6_3_bf3961fa7a"/>
     <path d="
M0 4.10148
C1.08773 4.10148 2.13105 3.66933 2.90019 2.90019
C3.66933 2.13105 4.10148 1.08773 4.10148 0
C4.10148 -1.08773 3.66933 -2.13105 2.90019 -2.90019
C2.13105 -3.66933 1.08773 -4.10148 0 -4.10148
C-1.08773 -4.10148 -2.13105 -3.66933 -2.90019 -2.90019
C-3.66933 -2.13105 -4.10148 -1.08773 -4.10148 0
C-4.10148 1.08773 -3.66933 2.13105 -2.90019 2.90019
C-2.13105 3.66933 -1.08773 4.10148 0 4.10148
z
" id="C6_4_c7fd34b02f"/>
     <path d="
M0 4.1263
C1.09431 4.1263 2.14394 3.69153 2.91773 2.91773
C3.69153 2.14394 4.1263 1.09431 4.1263 0
C4.1263 -1.09431 3.69153 -2.14394 2.91773 -2.91773
C2.14394 -3.69153 1.09431 -4.1263 0 -4.1263
C-1.09431 -4.1263 -2.14394 -3.69153 -2.91773 -2.91773
C-3.69153 -2.14394 -4.1263 -1.09431 -4.1263 0
C-4.1263 1.09431 -3.69153 2.14394 -2.91773 2.91773
C-2.14394 3.69153 -1.09431 4.1263 0 4.1263
z
" id="C6_5_e8804dddfd"/>
     <path d="
M0 4.11664
C1.09175 4.11664 2.13893 3.68289 2.91091 2.91091
C3.68289 2.13893 4.11664 1.09175 4.11664 0
C4.11664 -1.09175 3.68289 -2.13893 2.91091 -2.91091
C2.13893 -3.68289 1.09175 -4.11664 0 -4.11664
C-1.09175 -4.11664 -2.13893 -3.68289 -2.91091 -2.91091
C-3.68289 -2.13893 -4.11664 -1.09175 -4.11664 0
C-4.11664 1.09175 -3.68289 2.13893 -2.91091 2.91091
C-2.13893 3.68289 -1.09175 4.11664 0 4.11664
z
" id="C6_6_90ae09788b"/>
     <path d="
M0 4.14618
C1.09958 4.14618 2.15427 3.70931 2.93179 2.93179
C3.70931 2.15427 4.14618 1.09958 4.14618 0
C4.14618 -1.09958 3.70931 -2.15427 2.93179 -2.93179
C2.15427 -3.70931 1.09958 -4.14618 0 -4.14618
C-1.09958 -4.14618 -2.15427 -3.70931 -2.93179 -2.93179
C-3.70931 -2.15427 -4.14618 -1.09958 -4.14618 0
C-4.14618 1.09958 -3.70931 2.15427 -2.93179 2.93179
C-2.15427 3.70931 -1.09958 4.14618 0 4.14618
z
" id="C6_7_f637cff4b6"/>
     <path d="
M0 4.09501
C1.08601 4.09501 2.12769 3.66354 2.89561 2.89561
C3.66354 2.12769 4.09501 1.08601 4.09501 0
C4.09501 -1.08601 3.66354 -2.12769 2.89561 -2.89561
C2.12769 -3.66354 1.08601 -4.09501 0 -4.09501
C-1.08601 -4.09501 -2.12769 -3.66354 -2.89561 -2.89561
C-3.66354 -2.12769 -4.09501 -1.08601 -4.09501 0
C-4.09501 1.08601 -3.66354 2.12769 -2.89561 2.89561
C-2.12769 3.66354 -1.08601 4.09501 0 4.09501
z
" id="C6_8_ef6af074b8"/>
     <path d="
M0 4.12389
C1.09367 4.12389 2.14269 3.68937 2.91603 2.91603
C3.68937 2.14269 4.12389 1.09367 4.12389 0
C4.12389 -1.09367 3.68937 -2.14269 2.91603 -2.91603
C2.14269 -3.68937 1.09367 -4.12389 0 -4.12389
C-1.09367 -4.12389 -2.14269 -3.68937 -2.91603 -2.91603
C-3.68937 -2.14269 -4.12389 -1.09367 -4.12389 0
C-4.12389 1.09367 -3.68937 2.14269 -2.91603 2.91603
C-2.14269 3.68937 -1.09367 4.12389 0 4.12389
z
" id="C6_9_e07b5b8e96"/>
     <path d="
M0 2.35271
C0.623945 2.35271 1.22242 2.10481 1.66361 1.66361
C2.10481 1.22242 2.35271 0.623945 2.35271 0
C2.35271 -0.623945 2.10481 -1.22242 1.66361 -1.66361
C1.22242 -2.10481 0.623945 -2.35271 0 -2.35271
C-0.623945 -2.35271 -1.22242 -2.10481 -1.66361 -1.66361
C-2.10481 -1.22242 -2.35271 -0.623945 -2.35271 0
C-2.35271 0.623945 -2.10481 1.22242 -1.66361 1.66361
C-1.22242 2.10481 -0.623945 2.35271 0 2.35271
z
" id="C6_a_c812751e55"/>
     <path d="
M0 1.64169
C0.435382 1.64169 0.85299 1.46871 1.16085 1.16085
C1.46871 0.85299 1.64169 0.435382 1.64169 0
C1.64169 -0.435382 1.46871 -0.85299 1.16085 -1.16085
C0.85299 -1.46871 0.435382 -1.64169 0 -1.64169
C-0.435382 -1.64169 -0.85299 -1.46871 -1.16085 -1.16085
C-1.46871 -0.85299 -1.64169 -0.435382 -1.64169 0
C-1.64169 0.435382 -1.46871 0.85299 -1.16085 1.16085
C-0.85299 1.46871 -0.435382 1.64169 0 1.64169
z
" id="C6_b_dc530a6bf1"/>
     <path d="
M0 2.19858
C0.583069 2.19858 1.14234 1.96692 1.55463 1.55463
C1.96692 1.14234 2.19858 0.583069 2.19858 0
C2.19858 -0.583069 1.96692 -1.14234 1.55463 -1.55463
C1.14234 -1.96692 0.583069 -2.19858 0 -2.19858
C-0.583069 -2.19858 -1.14234 -1.96692 -1.55463 -1.55463
C-1.96692 -1.14234 -2.19858 -0.583069 -2.19858 0
C-2.19858 0.583069 -1.96692 1.14234 -1.55463 1.55463
C-1.14234 1.96692 -0.583069 2.19858 0 2.19858
z
" id="C6_c_fe02b1c123"/>
     <path d="
M0 1.58114
C0.419323 1.58114 0.821528 1.41454 1.11803 1.11803
C1.41454 0.821528 1.58114 0.419323 1.58114 0
C1.58114 -0.419323 1.41454 -0.821528 1.11803 -1.11803
C0.821528 -1.41454 0.419323 -1.58114 0 -1.58114
C-0.419323 -1.58114 -0.821528 -1.41454 -1.11803 -1.11803
C-1.41454 -0.821528 -1.58114 -0.419323 -1.58114 0
C-1.58114 0.419323 -1.41454 0.821528 -1.11803 1.11803
C-0.821528 1.41454 -0.419323 1.58114 0 1.58114
z
" id="C6_d_71348ff635"/>
     <path d="
M0 2.04756
C0.54302 2.04756 1.06387 1.83182 1.44785 1.44785
C1.83182 1.06387 2.04756 0.54302 2.04756 0
C2.04756 -0.54302 1.83182 -1.06387 1.44785 -1.44785
C1.06387 -1.83182 0.54302 -2.04756 0 -2.04756
C-0.54302 -2.04756 -1.06387 -1.83182 -1.44785 -1.44785
C-1.83182 -1.06387 -2.04756 -0.54302 -2.04756 0
C-2.04756 0.54302 -1.83182 1.06387 -1.44785 1.44785
C-1.06387 1.83182 -0.54302 2.04756 0 2.04756
z
" id="C6_e_a6dabb738a"/>
    </defs>
    <g clip-path="url(#pd92fc4fd08)">
     <use style="fill:#6bacd1;stroke:#000000;stroke-linecap:butt;" x="301.809976493" xlink:href="#C6_0_43ed0d6c61" y="208.47727967"/>
    </g>
    <g clip-path="url(#pd92fc4fd08)">
     <use style="fill:#f7f6f6;stroke:#000000;stroke-linecap:butt;" x="243.260728852" xlink:href="#C6_1_2986f93daa" y="230.420999169"/>
    </g>
    <g clip-path="url(#pd92fc4fd08)">
     <use style="fill:#e48066;stroke:#000000;stroke-linecap:butt;" x="265.627574187" xlink:href="#C6_2_33f8bd2168" y="218.680635643"/>
    </g>
    <g clip-path="url(#pd92fc4fd08)">
     <use style="fill:#053061;stroke:#000000;stroke-linecap:butt;" x="377.594308524" xlink:href="#C6_3_bf3961fa7a" y="215.576024696"/>
    </g>
    <g clip-path="url(#pd92fc4fd08)">
     <use style="fill:#67001f;stroke:#000000;stroke-linecap:butt;" x="406.970381328" xlink:href="#C6_4_c7fd34b02f" y="197.284633506"/>
    </g>
    <g clip-path="url(#pd92fc4fd08)">
     <use style="fill:#6bacd1;stroke:#000000;stroke-linecap:butt;" x="301.809976493" xlink:href="#C6_5_e8804dddfd" y="208.47727967"/>
    </g>
    <g clip-path="url(#pd92fc4fd08)">
     <use style="fill:#f7f6f6;stroke:#000000;stroke-linecap:butt;" x="243.260728852" xlink:href="#C6_6_90ae09788b" y="230.420999169"/>
    </g>
    <g clip-path="url(#pd92fc4fd08)">
     <use style="fill:#e48066;stroke:#000000;stroke-linecap:butt;" x="265.627574187" xlink:href="#C6_7_f637cff4b6" y="218.680635643"/>
    </g>
    <g clip-path="url(#pd92fc4fd08)">
     <use style="fill:#053061;stroke:#000000;stroke-linecap:butt;" x="377.594308524" xlink:href="#C6_8_ef6af074b8" y="215.576024696"/>
    </g>
    <g clip-path="url(#pd92fc4fd08)">
     <use style="fill:#67001f;stroke:#000000;stroke-linecap:butt;" x="406.970381328" xlink:href="#C6_9_e07b5b8e96" y="197.284633506"/>
    </g>
    <g clip-path="url(#pd92fc4fd08)">
     <use style="fill:#6bacd1;stroke:#000000;stroke-linecap:butt;" x="301.809976493" xlink:href="#C6_a_c812751e55" y="208.47727967"/>
    </g>
    <g clip-path="url(#pd92fc4fd08)">
     <use style="fill:#f7f6f6;stroke:#000000;stroke-linecap:butt;" x="243.260728852" xlink:href="#C6_b_dc530a6bf1" y="230.420999169"/>
    </g>
    <g clip-path="url(#pd92fc4fd08)">
     <use style="fill:#e48066;stroke:#000000;stroke-linecap:butt;" x="265.627574187" xlink:href="#C6_c_fe02b1c123" y="218.680635643"/>
    </g>
    <g clip-path="url(#pd92fc4fd08)">
     <use style="fill:#053061;stroke:#000000;stroke-linecap:butt;" x="377.594308524" xlink:href="#C6_d_71348ff635" y="215.576024696"/>
    </g>
    <g clip-path="url(#pd92fc4fd08)">
     <use style="fill:#67001f;stroke:#000000;stroke-linecap:butt;" x="406.970381328" xlink:href="#C6_e_a6dabb738a" y="197.284633506"/>
    </g>
   </g>
   <g id="PathCollection_2">
    <defs>
     <path d="
M0 -4.1833
L-4.1833 4.1833
L4.1833 4.1833
z
" id="C7_0_911fcb3201"/>
     <path d="
M0 -4.17971
L-4.17971 4.17971
L4.17971 4.17971
z
" id="C7_1_846bbf6d8f"/>
     <path d="
M0 -4.14329
L-4.14329 4.14329
L4.14329 4.14329
z
" id="C7_2_c117a9ca82"/>
     <path d="
M0 -4.09458
L-4.09458 4.09458
L4.09458 4.09458
z
" id="C7_3_c975706fca"/>
     <path d="
M0 -4.10148
L-4.10148 4.10148
L4.10148 4.10148
z
" id="C7_4_583c32cca6"/>
     <path d="
M0 -4.1263
L-4.1263 4.1263
L4.1263 4.1263
z
" id="C7_5_84bcfed0d6"/>
     <path d="
M0 -4.11664
L-4.11664 4.11664
L4.11664 4.11664
z
" id="C7_6_bc219181cd"/>
     <path d="
M0 -4.14618
L-4.14618 4.14618
L4.14618 4.14618
z
" id="C7_7_09d10670fd"/>
     <path d="
M0 -4.09501
L-4.09501 4.09501
L4.09501 4.09501
z
" id="C7_8_a6193db012"/>
     <path d="
M0 -4.12389
L-4.12389 4.12389
L4.12389 4.12389
z
" id="C7_9_a35bdb5854"/>
     <path d="
M0 -2.35271
L-2.35271 2.35271
L2.35271 2.35271
z
" id="C7_a_ca9839aa09"/>
     <path d="
M0 -1.64169
L-1.64169 1.64169
L1.64169 1.64169
z
" id="C7_b_2a31583c29"/>
     <path d="
M0 -2.19858
L-2.19858 2.19858
L2.19858 2.19858
z
" id="C7_c_9b15a96d7c"/>
     <path d="
M0 -1.58114
L-1.58114 1.58114
L1.58114 1.58114
z
" id="C7_d_5008649a8e"/>
     <path d="
M0 -2.04756
L-2.04756 2.04756
L2.04756 2.04756
z
" id="C7_e_f803e7a092"/>
    </defs>
    <g clip-path="url(#pd92fc4fd08)">
     <use style="fill:#67001f;stroke:#000000;stroke-linecap:butt;" x="317.361179588" xlink:href="#C7_0_911fcb3201" y="107.546700917"/>
    </g>
    <g clip-path="url(#pd92fc4fd08)">
     <use style="fill:#f7f6f6;stroke:#000000;stroke-linecap:butt;" x="354.096848009" xlink:href="#C7_1_846bbf6d8f" y="141.781760792"/>
    </g>
    <g clip-path="url(#pd92fc4fd08)">
     <use style="fill:#6bacd1;stroke:#000000;stroke-linecap:butt;" x="348.23244658" xlink:href="#C7_2_c117a9ca82" y="142.053233313"/>
    </g>
    <g clip-path="url(#pd92fc4fd08)">
     <use style="fill:#e48066;stroke:#000000;stroke-linecap:butt;" x="324.92322784" xlink:href="#C7_3_c975706fca" y="140.214181888"/>
    </g>
    <g clip-path="url(#pd92fc4fd08)">
     <use style="fill:#053061;stroke:#000000;stroke-linecap:butt;" x="340.890451282" xlink:href="#C7_4_583c32cca6" y="149.39473528"/>
    </g>
    <g clip-path="url(#pd92fc4fd08)">
     <use style="fill:#67001f;stroke:#000000;stroke-linecap:butt;" x="317.361179588" xlink:href="#C7_5_84bcfed0d6" y="107.546700917"/>
    </g>
    <g clip-path="url(#pd92fc4fd08)">
     <use style="fill:#f7f6f6;stroke:#000000;stroke-linecap:butt;" x="354.096848009" xlink:href="#C7_6_bc219181cd" y="141.781760792"/>
    </g>
    <g clip-path="url(#pd92fc4fd08)">
     <use style="fill:#6bacd1;stroke:#000000;stroke-linecap:butt;" x="348.23244658" xlink:href="#C7_7_09d10670fd" y="142.053233313"/>
    </g>
    <g clip-path="url(#pd92fc4fd08)">
     <use style="fill:#e48066;stroke:#000000;stroke-linecap:butt;" x="324.92322784" xlink:href="#C7_8_a6193db012" y="140.214181888"/>
    </g>
    <g clip-path="url(#pd92fc4fd08)">
     <use style="fill:#053061;stroke:#000000;stroke-linecap:butt;" x="340.890451282" xlink:href="#C7_9_a35bdb5854" y="149.39473528"/>
    </g>
    <g clip-path="url(#pd92fc4fd08)">
     <use style="fill:#67001f;stroke:#000000;stroke-linecap:butt;" x="317.361179588" xlink:href="#C7_a_ca9839aa09" y="107.546700917"/>
    </g>
    <g clip-path="url(#pd92fc4fd08)">
     <use style="fill:#f7f6f6;stroke:#000000;stroke-linecap:butt;" x="354.096848009" xlink:href="#C7_b_2a31583c29" y="141.781760792"/>
    </g>
    <g clip-path="url(#pd92fc4fd08)">
     <use style="fill:#6bacd1;stroke:#000000;stroke-linecap:butt;" x="348.23244658" xlink:href="#C7_c_9b15a96d7c" y="142.053233313"/>
    </g>
    <g clip-path="url(#pd92fc4fd08)">
     <use style="fill:#e48066;stroke:#000000;stroke-linecap:butt;" x="324.92322784" xlink:href="#C7_d_5008649a8e" y="140.214181888"/>
    </g>
    <g clip-path="url(#pd92fc4fd08)">
     <use style="fill:#053061;stroke:#000000;stroke-linecap:butt;" x="340.890451282" xlink:href="#C7_e_f803e7a092" y="149.39473528"/>
    </g>
   </g>
   <g id="PathCollection_3">
    <defs>
     <path d="
M-4.1833 4.1833
L4.1833 4.1833
L4.1833 -4.1833
L-4.1833 -4.1833
z
" id="C8_0_75aa5457cb"/>
     <path d="
M-4.17971 4.17971
L4.17971 4.17971
L4.17971 -4.17971
L-4.17971 -4.17971
z
" id="C8_1_fbc686d540"/>
     <path d="
M-4.14329 4.14329
L4.14329 4.14329
L4.14329 -4.14329
L-4.14329 -4.14329
z
" id="C8_2_b52bb293ae"/>
     <path d="
M-4.09458 4.09458
L4.09458 4.09458
L4.09458 -4.09458
L-4.09458 -4.09458
z
" id="C8_3_df7dd36f77"/>
     <path d="
M-4.10148 4.10148
L4.10148 4.10148
L4.10148 -4.10148
L-4.10148 -4.10148
z
" id="C8_4_c938619f3a"/>
     <path d="
M-4.1263 4.1263
L4.1263 4.1263
L4.1263 -4.1263
L-4.1263 -4.1263
z
" id="C8_5_5be8db6905"/>
     <path d="
M-4.11664 4.11664
L4.11664 4.11664
L4.11664 -4.11664
L-4.11664 -4.11664
z
" id="C8_6_84eeedd4cc"/>
     <path d="
M-4.14618 4.14618
L4.14618 4.14618
L4.14618 -4.14618
L-4.14618 -4.14618
z
" id="C8_7_78cf79aa86"/>
     <path d="
M-4.09501 4.09501
L4.09501 4.09501
L4.09501 -4.09501
L-4.09501 -4.09501
z
" id="C8_8_d2da9d81ab"/>
     <path d="
M-4.12389 4.12389
L4.12389 4.12389
L4.12389 -4.12389
L-4.12389 -4.12389
z
" id="C8_9_15fec83fe3"/>
     <path d="
M-2.35271 2.35271
L2.35271 2.35271
L2.35271 -2.35271
L-2.35271 -2.35271
z
" id="C8_a_845cc8619c"/>
     <path d="
M-1.64169 1.64169
L1.64169 1.64169
L1.64169 -1.64169
L-1.64169 -1.64169
z
" id="C8_b_4884ccc3fc"/>
     <path d="
M-2.19858 2.19858
L2.19858 2.19858
L2.19858 -2.19858
L-2.19858 -2.19858
z
" id="C8_c_7f08cf0063"/>
     <path d="
M-1.58114 1.58114
L1.58114 1.58114
L1.58114 -1.58114
L-1.58114 -1.58114
z
" id="C8_d_aae86ca244"/>
     <path d="
M-2.04756 2.04756
L2.04756 2.04756
L2.04756 -2.04756
L-2.04756 -2.04756
z
" id="C8_e_48a8b63bc4"/>
    </defs>
    <g clip-path="url(#pd92fc4fd08)">
     <use style="fill:#e48066;stroke:#000000;stroke-linecap:butt;" x="407.298516018" xlink:href="#C8_0_75aa5457cb" y="113.232516685"/>
    </g>
    <g clip-path="url(#pd92fc4fd08)">
     <use style="fill:#f7f6f6;stroke:#000000;stroke-linecap:butt;" x="371.76273177" xlink:href="#C8_1_fbc686d540" y="117.077430201"/>
    </g>
    <g clip-path="url(#pd92fc4fd08)">
     <use style="fill:#6bacd1;stroke:#000000;stroke-linecap:butt;" x="252.614388259" xlink:href="#C8_2_b52bb293ae" y="121.656108869"/>
    </g>
    <g clip-path="url(#pd92fc4fd08)">
     <use style="fill:#67001f;stroke:#000000;stroke-linecap:butt;" x="456.762732556" xlink:href="#C8_3_df7dd36f77" y="123.200144075"/>
    </g>
    <g clip-path="url(#pd92fc4fd08)">
     <use style="fill:#053061;stroke:#000000;stroke-linecap:butt;" x="407.132571539" xlink:href="#C8_4_c938619f3a" y="114.84081537"/>
    </g>
    <g clip-path="url(#pd92fc4fd08)">
     <use style="fill:#e48066;stroke:#000000;stroke-linecap:butt;" x="407.298516018" xlink:href="#C8_5_5be8db6905" y="113.232516685"/>
    </g>
    <g clip-path="url(#pd92fc4fd08)">
     <use style="fill:#f7f6f6;stroke:#000000;stroke-linecap:butt;" x="371.76273177" xlink:href="#C8_6_84eeedd4cc" y="117.077430201"/>
    </g>
    <g clip-path="url(#pd92fc4fd08)">
     <use style="fill:#6bacd1;stroke:#000000;stroke-linecap:butt;" x="252.614388259" xlink:href="#C8_7_78cf79aa86" y="121.656108869"/>
    </g>
    <g clip-path="url(#pd92fc4fd08)">
     <use style="fill:#67001f;stroke:#000000;stroke-linecap:butt;" x="456.762732556" xlink:href="#C8_8_d2da9d81ab" y="123.200144075"/>
    </g>
    <g clip-path="url(#pd92fc4fd08)">
     <use style="fill:#053061;stroke:#000000;stroke-linecap:butt;" x="407.132571539" xlink:href="#C8_9_15fec83fe3" y="114.84081537"/>
    </g>
    <g clip-path="url(#pd92fc4fd08)">
     <use style="fill:#e48066;stroke:#000000;stroke-linecap:butt;" x="407.298516018" xlink:href="#C8_a_845cc8619c" y="113.232516685"/>
    </g>
    <g clip-path="url(#pd92fc4fd08)">
     <use style="fill:#f7f6f6;stroke:#000000;stroke-linecap:butt;" x="371.76273177" xlink:href="#C8_b_4884ccc3fc" y="117.077430201"/>
    </g>
    <g clip-path="url(#pd92fc4fd08)">
     <use style="fill:#6bacd1;stroke:#000000;stroke-linecap:butt;" x="252.614388259" xlink:href="#C8_c_7f08cf0063" y="121.656108869"/>
    </g>
    <g clip-path="url(#pd92fc4fd08)">
     <use style="fill:#67001f;stroke:#000000;stroke-linecap:butt;" x="456.762732556" xlink:href="#C8_d_aae86ca244" y="123.200144075"/>
    </g>
    <g clip-path="url(#pd92fc4fd08)">
     <use style="fill:#053061;stroke:#000000;stroke-linecap:butt;" x="407.132571539" xlink:href="#C8_e_48a8b63bc4" y="114.84081537"/>
    </g>
   </g>
  </g>
 </g>
 <defs>
  <clipPath id="pd92fc4fd08">
   <rect height="345.6" width="355.125610067" x="117.637194967" y="43.2"/>
  </clipPath>
 </defs>
</svg>
